<svg width="122" height="37" viewBox="0 0 122 37" fill="none" xmlns="http://www.w3.org/2000/svg">
<mask id="path-1-inside-1_50_24" fill="white">
<path d="M99.6914 0H115C118.866 0 122 3.13401 122 7V10.9318H99.6914V0Z"/>
</mask>
<path d="M99.6914 -4H115C121.075 -4 126 0.924868 126 7H118C118 5.34315 116.657 4 115 4H99.6914V-4ZM122 10.9318H99.6914H122ZM99.6914 10.9318V0V10.9318ZM115 -4C121.075 -4 126 0.924868 126 7V10.9318H118V7C118 5.34315 116.657 4 115 4V-4Z" fill="#000152" mask="url(#path-1-inside-1_50_24)"/>
<mask id="path-3-inside-2_50_24" fill="white">
<path d="M25.7943 0H7.00002C3.13403 0 2.67029e-05 3.13401 2.67029e-05 7V10.9318H25.7943V0Z"/>
</mask>
<path d="M25.7943 -4H7.00003C0.924894 -4 -3.99997 0.924868 -3.99997 7H4.00003C4.00003 5.34315 5.34317 4 7.00003 4H25.7943V-4ZM2.67029e-05 10.9318H25.7943H2.67029e-05ZM25.7943 10.9318V0V10.9318ZM7.00003 -4C0.924894 -4 -3.99997 0.924868 -3.99997 7V10.9318H4.00003V7C4.00003 5.34315 5.34317 4 7.00003 4V-4Z" fill="#000152" mask="url(#path-3-inside-2_50_24)"/>
<mask id="path-5-inside-3_50_24" fill="white">
<path d="M22.3086 37H7.00002C3.13402 37 2.28882e-05 33.866 2.28882e-05 30V26.0682H22.3086V37Z"/>
</mask>
<path d="M22.3086 41H7.00002C0.924891 41 -3.99998 36.0751 -3.99998 30H4.00002C4.00002 31.6569 5.34317 33 7.00002 33H22.3086V41ZM2.28882e-05 26.0682H22.3086H2.28882e-05ZM22.3086 26.0682V37V26.0682ZM7.00002 41C0.924891 41 -3.99998 36.0751 -3.99998 30V26.0682H4.00002V30C4.00002 31.6569 5.34317 33 7.00002 33V41Z" fill="#000152" mask="url(#path-5-inside-3_50_24)"/>
<mask id="path-7-inside-4_50_24" fill="white">
<path d="M99.6914 37H115C118.866 37 122 33.866 122 30V26.0682H99.6914V37Z"/>
</mask>
<path d="M99.6914 41H115C121.075 41 126 36.0751 126 30H118C118 31.6569 116.657 33 115 33H99.6914V41ZM122 26.0682H99.6914H122ZM99.6914 26.0682V37V26.0682ZM115 41C121.075 41 126 36.0751 126 30V26.0682H118V30C118 31.6569 116.657 33 115 33V41Z" fill="#000152" mask="url(#path-7-inside-4_50_24)"/>
</svg>
