<svg width="336" height="102" viewBox="0 0 336 102" fill="none" xmlns="http://www.w3.org/2000/svg">
<mask id="path-1-inside-1_1_92" fill="white">
<path d="M9 16C9 10.4772 13.4772 6 19 6H118V96H19C13.4772 96 9 91.5228 9 86V16Z"/>
</mask>
<path d="M9 16C9 10.4772 13.4772 6 19 6H118V96H19C13.4772 96 9 91.5228 9 86V16Z" fill="#E4EAFF"/>
<path d="M17.0869 90.623C17.4986 90.7938 17.941 90.9094 18.4072 90.9639C18.4555 90.9696 18.504 90.9742 18.5527 90.9785C18.6162 90.9841 18.6798 90.991 18.7441 90.9941L19 91H23.9502V101H19C16.9753 101 15.0324 100.596 13.2568 99.8594L17.0869 90.623ZM113.05 101V96H113V91.5H113.05V91H118V91.5H120V101H113.05ZM43.75 91V101H33.8496V91H43.75ZM63.5498 91V101H53.6504V91H63.5498ZM83.3496 91V101H73.4502V91H83.3496ZM103.15 91V101H93.25V91H103.15ZM14 86C14 86.6872 14.1354 87.3305 14.377 87.9131L5.14062 91.7432C4.52582 90.2606 4.14287 88.6612 4.0332 86.9951C4.01166 86.6662 4 86.3344 4 86V81.625H14V86ZM120 73.5V82.5H116V73.5H120ZM14 64.125V72.875H4V64.125H14ZM120 55.5V64.5H116V55.5H120ZM14 46.625V55.375H4V46.625H14ZM120 37.5V46.5H116V37.5H120ZM14 29.125V37.875H4V29.125H14ZM120 19.5V28.5H116V19.5H120ZM14 20.375H4V16C4 15.7447 4.00683 15.4908 4.01953 15.2383C4.03209 14.9873 4.05045 14.7379 4.0752 14.4902C4.22381 13.0092 4.58939 11.5861 5.14062 10.2568L14.377 14.0869C14.1354 14.6695 14 15.3128 14 16V20.375ZM19 11C18.8487 11 18.6996 11.0077 18.5527 11.0205C18.504 11.0248 18.4555 11.0295 18.4072 11.0352C17.941 11.0896 17.4986 11.2062 17.0869 11.377L13.2568 2.14062C15.0324 1.40433 16.9753 1 19 1V11ZM23.9502 1V11H19V1H23.9502ZM43.75 1V11H33.8496V1H43.75ZM63.5498 1V11H53.6504V1H63.5498ZM83.3496 1V11H73.4502V1H83.3496ZM103.15 1V11H93.25V1H103.15ZM120 1V10.5H118V11H113.05V10.5H113V6H113.05V1H120Z" fill="#9DB4FF" mask="url(#path-1-inside-1_1_92)"/>
<mask id="path-3-inside-2_1_92" fill="white">
<path d="M9 16C9 10.4772 13.4772 6 19 6H114V96H19C13.4772 96 9 91.5228 9 86V16Z"/>
</mask>
<path d="M9 16C9 10.4772 13.4772 6 19 6H114V96H19C13.4772 96 9 91.5228 9 86V16Z" fill="#E4EAFF"/>
<path d="M4 16C4 7.71573 10.7157 1 19 1H114V11H19C16.2386 11 14 13.2386 14 16H4ZM114 101H19C10.7157 101 4 94.2843 4 86H14C14 88.7614 16.2386 91 19 91H114V101ZM19 101C10.7157 101 4 94.2843 4 86V16C4 7.71573 10.7157 1 19 1V11C16.2386 11 14 13.2386 14 16V86C14 88.7614 16.2386 91 19 91V101ZM114 6V96V6Z" fill="#162556" mask="url(#path-3-inside-2_1_92)"/>
<mask id="path-5-inside-3_1_92" fill="white">
<path d="M118 6H311C316.523 6 321 10.4772 321 16V86C321 91.5228 316.523 96 311 96H118V6Z"/>
</mask>
<path d="M118 6H311C316.523 6 321 10.4772 321 16V86C321 91.5228 316.523 96 311 96H118V6Z" fill="white"/>
<path d="M118 1H311C319.284 1 326 7.71573 326 16H316C316 13.2386 313.761 11 311 11H118V1ZM326 86C326 94.2843 319.284 101 311 101H118V91H311C313.761 91 316 88.7614 316 86H326ZM118 96V6V96ZM311 1C319.284 1 326 7.71573 326 16V86C326 94.2843 319.284 101 311 101V91C313.761 91 316 88.7614 316 86V16C316 13.2386 313.761 11 311 11V1Z" fill="#162556" mask="url(#path-5-inside-3_1_92)"/>
<path d="M116.329 2.99356C117.577 2.98382 118.631 2.97604 119.561 3.03946C120.498 3.10333 121.131 3.2304 121.557 3.40079C121.932 3.55059 122.084 3.70659 122.182 3.86856C122.304 4.06856 122.487 4.52594 122.487 5.5004C122.487 9.64237 119.129 13.0004 114.987 13.0004C110.845 13.0004 107.487 9.64237 107.487 5.5004C107.487 4.52588 107.67 4.06854 107.792 3.86856C107.89 3.70659 108.042 3.5506 108.417 3.40079C108.843 3.2304 109.476 3.10431 110.413 3.04044C111.343 2.97701 112.397 2.98382 113.645 2.99356C114.076 2.99693 114.527 3.0004 114.987 3.0004C115.447 3.0004 115.898 2.99692 116.329 2.99356Z" fill="white" stroke="#162556" stroke-width="5"/>
<path d="M115 88.5C119.142 88.5 122.5 91.8579 122.5 96C122.5 97.0458 122.29 97.6255 122.086 97.9561C121.892 98.2705 121.59 98.5475 121.05 98.7891C119.801 99.3476 117.836 99.5 115 99.5C112.164 99.5 110.199 99.3476 108.95 98.7891C108.41 98.5475 108.108 98.2705 107.914 97.9561C107.71 97.6255 107.5 97.0458 107.5 96C107.5 91.8579 110.858 88.5 115 88.5Z" fill="white" stroke="#162556" stroke-width="5"/>
<rect x="103" width="23" height="6" fill="white"/>
<path d="M105 96H125V102H105V96Z" fill="white"/>
<path d="M9.00049 33.5C18.6652 33.5003 26.5005 41.3352 26.5005 51C26.5005 60.6648 18.6652 68.4997 9.00049 68.5C6.5422 68.5 5.25128 67.9974 4.53662 67.4473C3.85603 66.9232 3.35513 66.0925 3.05615 64.6387C2.74736 63.1371 2.70814 61.2359 2.77393 58.8535C2.83674 56.579 2.99951 53.7969 2.99951 51C2.99951 48.2031 2.83674 45.421 2.77393 43.1465C2.70814 40.7641 2.74736 38.8629 3.05615 37.3613C3.35513 35.9075 3.85603 35.0768 4.53662 34.5527C5.25128 34.0026 6.5422 33.5 9.00049 33.5Z" fill="white" stroke="#162556" stroke-width="5"/>
<rect y="31" width="9" height="40" fill="white"/>
<path d="M302 32.5537C306.917 32.8832 314.518 34.7114 321.157 37.6553C324.826 39.2819 328.101 41.207 330.435 43.3262C332.783 45.4594 334 47.6197 334 49.7393C334 51.8432 332.8 53.9051 330.47 55.8916C328.149 57.8703 324.884 59.614 321.216 61.0596C314.581 63.6738 306.955 65.186 302 65.4551V32.5537Z" fill="white" stroke="#162556" stroke-width="3"/>
<rect x="297" y="30" width="19" height="46" fill="white"/>
<mask id="path-15-outside-4_1_92" maskUnits="userSpaceOnUse" x="59" y="27" width="224" height="44" fill="black">
<rect fill="white" x="59" y="27" width="224" height="44"/>
<path d="M64.7159 39.9091L73.3523 64.3977H73.6932L82.3295 39.9091H86.0227L75.3409 69H71.7045L61.0227 39.9091H64.7159ZM90.554 69V39.9091H108.111V43.0341H94.0767V52.8636H107.202V55.9886H94.0767V65.875H108.338V69H90.554ZM97.7699 36.9545L101.236 30.3636H105.156L100.724 36.9545H97.7699ZM149.119 49H145.597C145.388 47.9867 145.024 47.0966 144.503 46.3295C143.991 45.5625 143.366 44.9186 142.628 44.3977C141.899 43.8674 141.089 43.4697 140.199 43.2045C139.309 42.9394 138.381 42.8068 137.415 42.8068C135.653 42.8068 134.058 43.2519 132.628 44.142C131.207 45.0322 130.076 46.3438 129.233 48.0767C128.4 49.8097 127.983 51.9356 127.983 54.4545C127.983 56.9735 128.4 59.0994 129.233 60.8324C130.076 62.5653 131.207 63.8769 132.628 64.767C134.058 65.6572 135.653 66.1023 137.415 66.1023C138.381 66.1023 139.309 65.9697 140.199 65.7045C141.089 65.4394 141.899 65.0464 142.628 64.5256C143.366 63.9953 143.991 63.3466 144.503 62.5795C145.024 61.803 145.388 60.9129 145.597 59.9091H149.119C148.854 61.3958 148.371 62.7263 147.67 63.9006C146.97 65.0748 146.098 66.0739 145.057 66.8977C144.015 67.7121 142.846 68.3324 141.548 68.7585C140.26 69.1847 138.883 69.3977 137.415 69.3977C134.934 69.3977 132.727 68.7917 130.795 67.5795C128.864 66.3674 127.344 64.6439 126.236 62.4091C125.128 60.1742 124.574 57.5227 124.574 54.4545C124.574 51.3864 125.128 48.7348 126.236 46.5C127.344 44.2652 128.864 42.5417 130.795 41.3295C132.727 40.1174 134.934 39.5114 137.415 39.5114C138.883 39.5114 140.26 39.7244 141.548 40.1506C142.846 40.5767 144.015 41.2017 145.057 42.0256C146.098 42.84 146.97 43.8343 147.67 45.0085C148.371 46.1733 148.854 47.5038 149.119 49ZM173.903 39.9091H177.425V59.1705C177.425 61.1591 176.957 62.9347 176.019 64.4972C175.091 66.0502 173.78 67.2765 172.085 68.1761C170.389 69.0663 168.401 69.5114 166.119 69.5114C163.836 69.5114 161.848 69.0663 160.153 68.1761C158.458 67.2765 157.141 66.0502 156.204 64.4972C155.276 62.9347 154.812 61.1591 154.812 59.1705V39.9091H158.335V58.8864C158.335 60.3068 158.647 61.571 159.272 62.679C159.897 63.7775 160.787 64.6439 161.942 65.2784C163.107 65.9034 164.499 66.2159 166.119 66.2159C167.738 66.2159 169.13 65.9034 170.295 65.2784C171.46 64.6439 172.35 63.7775 172.965 62.679C173.59 61.571 173.903 60.3068 173.903 58.8864V39.9091ZM167.596 36.9545H164.812V33.8864C165.806 33.8295 166.507 33.6922 166.914 33.4744C167.331 33.2566 167.539 32.9205 167.539 32.4659C167.539 31.9545 167.241 31.5805 166.644 31.3438C166.048 31.107 165.323 30.9886 164.471 30.9886L164.585 28.8295C166.545 28.8295 168.027 29.1705 169.031 29.8523C170.044 30.5341 170.55 31.4432 170.55 32.5795C170.55 33.5455 170.243 34.2509 169.627 34.696C169.012 35.1411 168.335 35.4205 167.596 35.5341V36.9545ZM185.653 69H181.96L192.642 39.9091H196.278L206.96 69H203.267L194.574 44.5114H194.347L185.653 69ZM187.017 57.6364H201.903V60.7614H187.017V57.6364ZM221.151 43.0341V39.9091H242.969V43.0341H233.821V69H230.298V43.0341H221.151ZM271.74 54.4545C271.74 57.5227 271.186 60.1742 270.078 62.4091C268.97 64.6439 267.45 66.3674 265.518 67.5795C263.587 68.7917 261.38 69.3977 258.899 69.3977C256.418 69.3977 254.212 68.7917 252.28 67.5795C250.348 66.3674 248.828 64.6439 247.72 62.4091C246.612 60.1742 246.058 57.5227 246.058 54.4545C246.058 51.3864 246.612 48.7348 247.72 46.5C248.828 44.2652 250.348 42.5417 252.28 41.3295C254.212 40.1174 256.418 39.5114 258.899 39.5114C261.38 39.5114 263.587 40.1174 265.518 41.3295C267.45 42.5417 268.97 44.2652 270.078 46.5C271.186 48.7348 271.74 51.3864 271.74 54.4545ZM268.331 54.4545C268.331 51.9356 267.91 49.8097 267.067 48.0767C266.233 46.3438 265.102 45.0322 263.672 44.142C262.251 43.2519 260.661 42.8068 258.899 42.8068C257.138 42.8068 255.542 43.2519 254.112 44.142C252.692 45.0322 251.56 46.3438 250.717 48.0767C249.884 49.8097 249.467 51.9356 249.467 54.4545C249.467 56.9735 249.884 59.0994 250.717 60.8324C251.56 62.5653 252.692 63.8769 254.112 64.767C255.542 65.6572 257.138 66.1023 258.899 66.1023C260.661 66.1023 262.251 65.6572 263.672 64.767C265.102 63.8769 266.233 62.5653 267.067 60.8324C267.91 59.0994 268.331 56.9735 268.331 54.4545ZM261.854 37.2955L258.899 33.3182L255.945 37.2955H252.763V37.0682L257.365 31.1591H260.433L265.036 37.0682V37.2955H261.854ZM281.186 39.9091V69H277.663V39.9091H281.186Z"/>
</mask>
<path d="M64.7159 39.9091L73.3523 64.3977H73.6932L82.3295 39.9091H86.0227L75.3409 69H71.7045L61.0227 39.9091H64.7159ZM90.554 69V39.9091H108.111V43.0341H94.0767V52.8636H107.202V55.9886H94.0767V65.875H108.338V69H90.554ZM97.7699 36.9545L101.236 30.3636H105.156L100.724 36.9545H97.7699ZM149.119 49H145.597C145.388 47.9867 145.024 47.0966 144.503 46.3295C143.991 45.5625 143.366 44.9186 142.628 44.3977C141.899 43.8674 141.089 43.4697 140.199 43.2045C139.309 42.9394 138.381 42.8068 137.415 42.8068C135.653 42.8068 134.058 43.2519 132.628 44.142C131.207 45.0322 130.076 46.3438 129.233 48.0767C128.4 49.8097 127.983 51.9356 127.983 54.4545C127.983 56.9735 128.4 59.0994 129.233 60.8324C130.076 62.5653 131.207 63.8769 132.628 64.767C134.058 65.6572 135.653 66.1023 137.415 66.1023C138.381 66.1023 139.309 65.9697 140.199 65.7045C141.089 65.4394 141.899 65.0464 142.628 64.5256C143.366 63.9953 143.991 63.3466 144.503 62.5795C145.024 61.803 145.388 60.9129 145.597 59.9091H149.119C148.854 61.3958 148.371 62.7263 147.67 63.9006C146.97 65.0748 146.098 66.0739 145.057 66.8977C144.015 67.7121 142.846 68.3324 141.548 68.7585C140.26 69.1847 138.883 69.3977 137.415 69.3977C134.934 69.3977 132.727 68.7917 130.795 67.5795C128.864 66.3674 127.344 64.6439 126.236 62.4091C125.128 60.1742 124.574 57.5227 124.574 54.4545C124.574 51.3864 125.128 48.7348 126.236 46.5C127.344 44.2652 128.864 42.5417 130.795 41.3295C132.727 40.1174 134.934 39.5114 137.415 39.5114C138.883 39.5114 140.26 39.7244 141.548 40.1506C142.846 40.5767 144.015 41.2017 145.057 42.0256C146.098 42.84 146.97 43.8343 147.67 45.0085C148.371 46.1733 148.854 47.5038 149.119 49ZM173.903 39.9091H177.425V59.1705C177.425 61.1591 176.957 62.9347 176.019 64.4972C175.091 66.0502 173.78 67.2765 172.085 68.1761C170.389 69.0663 168.401 69.5114 166.119 69.5114C163.836 69.5114 161.848 69.0663 160.153 68.1761C158.458 67.2765 157.141 66.0502 156.204 64.4972C155.276 62.9347 154.812 61.1591 154.812 59.1705V39.9091H158.335V58.8864C158.335 60.3068 158.647 61.571 159.272 62.679C159.897 63.7775 160.787 64.6439 161.942 65.2784C163.107 65.9034 164.499 66.2159 166.119 66.2159C167.738 66.2159 169.13 65.9034 170.295 65.2784C171.46 64.6439 172.35 63.7775 172.965 62.679C173.59 61.571 173.903 60.3068 173.903 58.8864V39.9091ZM167.596 36.9545H164.812V33.8864C165.806 33.8295 166.507 33.6922 166.914 33.4744C167.331 33.2566 167.539 32.9205 167.539 32.4659C167.539 31.9545 167.241 31.5805 166.644 31.3438C166.048 31.107 165.323 30.9886 164.471 30.9886L164.585 28.8295C166.545 28.8295 168.027 29.1705 169.031 29.8523C170.044 30.5341 170.55 31.4432 170.55 32.5795C170.55 33.5455 170.243 34.2509 169.627 34.696C169.012 35.1411 168.335 35.4205 167.596 35.5341V36.9545ZM185.653 69H181.96L192.642 39.9091H196.278L206.96 69H203.267L194.574 44.5114H194.347L185.653 69ZM187.017 57.6364H201.903V60.7614H187.017V57.6364ZM221.151 43.0341V39.9091H242.969V43.0341H233.821V69H230.298V43.0341H221.151ZM271.74 54.4545C271.74 57.5227 271.186 60.1742 270.078 62.4091C268.97 64.6439 267.45 66.3674 265.518 67.5795C263.587 68.7917 261.38 69.3977 258.899 69.3977C256.418 69.3977 254.212 68.7917 252.28 67.5795C250.348 66.3674 248.828 64.6439 247.72 62.4091C246.612 60.1742 246.058 57.5227 246.058 54.4545C246.058 51.3864 246.612 48.7348 247.72 46.5C248.828 44.2652 250.348 42.5417 252.28 41.3295C254.212 40.1174 256.418 39.5114 258.899 39.5114C261.38 39.5114 263.587 40.1174 265.518 41.3295C267.45 42.5417 268.97 44.2652 270.078 46.5C271.186 48.7348 271.74 51.3864 271.74 54.4545ZM268.331 54.4545C268.331 51.9356 267.91 49.8097 267.067 48.0767C266.233 46.3438 265.102 45.0322 263.672 44.142C262.251 43.2519 260.661 42.8068 258.899 42.8068C257.138 42.8068 255.542 43.2519 254.112 44.142C252.692 45.0322 251.56 46.3438 250.717 48.0767C249.884 49.8097 249.467 51.9356 249.467 54.4545C249.467 56.9735 249.884 59.0994 250.717 60.8324C251.56 62.5653 252.692 63.8769 254.112 64.767C255.542 65.6572 257.138 66.1023 258.899 66.1023C260.661 66.1023 262.251 65.6572 263.672 64.767C265.102 63.8769 266.233 62.5653 267.067 60.8324C267.91 59.0994 268.331 56.9735 268.331 54.4545ZM261.854 37.2955L258.899 33.3182L255.945 37.2955H252.763V37.0682L257.365 31.1591H260.433L265.036 37.0682V37.2955H261.854ZM281.186 39.9091V69H277.663V39.9091H281.186Z" fill="#162556"/>
<path d="M64.7159 39.9091L65.659 39.5765L65.4236 38.9091H64.7159V39.9091ZM73.3523 64.3977L72.4092 64.7303L72.6446 65.3977H73.3523V64.3977ZM73.6932 64.3977V65.3977H74.4009L74.6363 64.7303L73.6932 64.3977ZM82.3295 39.9091V38.9091H81.6218L81.3865 39.5765L82.3295 39.9091ZM86.0227 39.9091L86.9614 40.2538L87.4552 38.9091H86.0227V39.9091ZM75.3409 69V70H76.039L76.2796 69.3447L75.3409 69ZM71.7045 69L70.7658 69.3447L71.0065 70H71.7045V69ZM61.0227 39.9091V38.9091H59.5903L60.084 40.2538L61.0227 39.9091ZM64.7159 39.9091L63.7728 40.2417L72.4092 64.7303L73.3523 64.3977L74.2953 64.0651L65.659 39.5765L64.7159 39.9091ZM73.3523 64.3977V65.3977H73.6932V64.3977V63.3977H73.3523V64.3977ZM73.6932 64.3977L74.6363 64.7303L83.2726 40.2417L82.3295 39.9091L81.3865 39.5765L72.7501 64.0651L73.6932 64.3977ZM82.3295 39.9091V40.9091H86.0227V39.9091V38.9091H82.3295V39.9091ZM86.0227 39.9091L85.084 39.5644L74.4022 68.6553L75.3409 69L76.2796 69.3447L86.9614 40.2538L86.0227 39.9091ZM75.3409 69V68H71.7045V69V70H75.3409V69ZM71.7045 69L72.6433 68.6553L61.9614 39.5644L61.0227 39.9091L60.084 40.2538L70.7658 69.3447L71.7045 69ZM61.0227 39.9091V40.9091H64.7159V39.9091V38.9091H61.0227V39.9091ZM90.554 69H89.554V70H90.554V69ZM90.554 39.9091V38.9091H89.554V39.9091H90.554ZM108.111 39.9091H109.111V38.9091H108.111V39.9091ZM108.111 43.0341V44.0341H109.111V43.0341H108.111ZM94.0767 43.0341V42.0341H93.0767V43.0341H94.0767ZM94.0767 52.8636H93.0767V53.8636H94.0767V52.8636ZM107.202 52.8636H108.202V51.8636H107.202V52.8636ZM107.202 55.9886V56.9886H108.202V55.9886H107.202ZM94.0767 55.9886V54.9886H93.0767V55.9886H94.0767ZM94.0767 65.875H93.0767V66.875H94.0767V65.875ZM108.338 65.875H109.338V64.875H108.338V65.875ZM108.338 69V70H109.338V69H108.338ZM97.7699 36.9545L96.8848 36.4891L96.1142 37.9545H97.7699V36.9545ZM101.236 30.3636V29.3636H100.632L100.351 29.8982L101.236 30.3636ZM105.156 30.3636L105.986 30.9216L107.034 29.3636H105.156V30.3636ZM100.724 36.9545V37.9545H101.257L101.554 37.5125L100.724 36.9545ZM90.554 69H91.554V39.9091H90.554H89.554V69H90.554ZM90.554 39.9091V40.9091H108.111V39.9091V38.9091H90.554V39.9091ZM108.111 39.9091H107.111V43.0341H108.111H109.111V39.9091H108.111ZM108.111 43.0341V42.0341H94.0767V43.0341V44.0341H108.111V43.0341ZM94.0767 43.0341H93.0767V52.8636H94.0767H95.0767V43.0341H94.0767ZM94.0767 52.8636V53.8636H107.202V52.8636V51.8636H94.0767V52.8636ZM107.202 52.8636H106.202V55.9886H107.202H108.202V52.8636H107.202ZM107.202 55.9886V54.9886H94.0767V55.9886V56.9886H107.202V55.9886ZM94.0767 55.9886H93.0767V65.875H94.0767H95.0767V55.9886H94.0767ZM94.0767 65.875V66.875H108.338V65.875V64.875H94.0767V65.875ZM108.338 65.875H107.338V69H108.338H109.338V65.875H108.338ZM108.338 69V68H90.554V69V70H108.338V69ZM97.7699 36.9545L98.655 37.42L102.121 30.8291L101.236 30.3636L100.351 29.8982L96.8848 36.4891L97.7699 36.9545ZM101.236 30.3636V31.3636H105.156V30.3636V29.3636H101.236V30.3636ZM105.156 30.3636L104.326 29.8056L99.8946 36.3965L100.724 36.9545L101.554 37.5125L105.986 30.9216L105.156 30.3636ZM100.724 36.9545V35.9545H97.7699V36.9545V37.9545H100.724V36.9545ZM149.119 49V50H150.312L150.104 48.8255L149.119 49ZM145.597 49L144.617 49.2014L144.781 50H145.597V49ZM144.503 46.3295L143.671 46.8843L143.676 46.8913L144.503 46.3295ZM142.628 44.3977L142.04 45.2065L142.046 45.2108L142.052 45.215L142.628 44.3977ZM140.199 43.2045L139.913 44.1629L139.913 44.1629L140.199 43.2045ZM132.628 44.142L132.099 43.2931L132.097 43.2947L132.628 44.142ZM129.233 48.0767L128.334 47.6393L128.332 47.6433L129.233 48.0767ZM129.233 60.8324L128.332 61.2658L128.334 61.2697L129.233 60.8324ZM132.628 64.767L132.097 65.6144L132.099 65.616L132.628 64.767ZM140.199 65.7045L139.913 64.7462L139.913 64.7462L140.199 65.7045ZM142.628 64.5256L143.209 65.3393L143.211 65.3379L142.628 64.5256ZM144.503 62.5795L143.672 62.0225L143.671 62.0248L144.503 62.5795ZM145.597 59.9091V58.9091H144.783L144.617 59.7059L145.597 59.9091ZM149.119 59.9091L150.104 60.0847L150.313 58.9091H149.119V59.9091ZM147.67 63.9006L146.812 63.3881L146.812 63.3881L147.67 63.9006ZM145.057 66.8977L145.673 67.6855L145.677 67.6821L145.057 66.8977ZM141.548 68.7585L141.236 67.8085L141.234 67.8091L141.548 68.7585ZM130.795 67.5795L130.264 68.4266L130.264 68.4266L130.795 67.5795ZM126.236 62.4091L127.132 61.9649L127.132 61.9649L126.236 62.4091ZM126.236 46.5L125.34 46.0558L126.236 46.5ZM141.548 40.1506L141.234 41.0999L141.236 41.1006L141.548 40.1506ZM145.057 42.0256L144.436 42.8099L144.441 42.8134L145.057 42.0256ZM147.67 45.0085L146.812 45.521L146.814 45.524L147.67 45.0085ZM149.119 49V48H145.597V49V50H149.119V49ZM145.597 49L146.576 48.7986C146.344 47.6713 145.933 46.6557 145.33 45.7678L144.503 46.3295L143.676 46.8913C144.114 47.5375 144.432 48.3022 144.617 49.2014L145.597 49ZM144.503 46.3295L145.335 45.7748C144.757 44.9074 144.045 44.1738 143.204 43.5805L142.628 44.3977L142.052 45.215C142.687 45.6634 143.226 46.2176 143.671 46.8842L144.503 46.3295ZM142.628 44.3977L143.216 43.589C142.392 42.99 141.48 42.5427 140.484 42.2462L140.199 43.2045L139.913 44.1629C140.698 44.3967 141.405 44.7449 142.04 45.2065L142.628 44.3977ZM140.199 43.2045L140.484 42.2462C139.498 41.9523 138.473 41.8068 137.415 41.8068V42.8068V43.8068C138.288 43.8068 139.12 43.9265 139.913 44.1629L140.199 43.2045ZM137.415 42.8068V41.8068C135.476 41.8068 133.695 42.2996 132.099 43.2931L132.628 44.142L133.156 44.991C134.42 44.2042 135.831 43.8068 137.415 43.8068V42.8068ZM132.628 44.142L132.097 43.2947C130.495 44.2985 129.246 45.7637 128.334 47.6393L129.233 48.0767L130.132 48.5141C130.906 46.9238 131.92 45.7659 133.159 44.9894L132.628 44.142ZM129.233 48.0767L128.332 47.6433C127.416 49.5467 126.983 51.8302 126.983 54.4545H127.983H128.983C128.983 52.041 129.383 50.0727 130.134 48.5101L129.233 48.0767ZM127.983 54.4545H126.983C126.983 57.0789 127.416 59.3624 128.332 61.2658L129.233 60.8324L130.134 60.399C129.383 58.8364 128.983 56.8681 128.983 54.4545H127.983ZM129.233 60.8324L128.334 61.2697C129.246 63.1454 130.495 64.6106 132.097 65.6144L132.628 64.767L133.159 63.9197C131.92 63.1432 130.906 61.9853 130.132 60.395L129.233 60.8324ZM132.628 64.767L132.099 65.616C133.695 66.6095 135.476 67.1023 137.415 67.1023V66.1023V65.1023C135.831 65.1023 134.42 64.7049 133.156 63.9181L132.628 64.767ZM137.415 66.1023V67.1023C138.473 67.1023 139.498 66.9568 140.484 66.6629L140.199 65.7045L139.913 64.7462C139.12 64.9826 138.288 65.1023 137.415 65.1023V66.1023ZM140.199 65.7045L140.484 66.6629C141.476 66.3674 142.387 65.9267 143.209 65.3393L142.628 64.5256L142.047 63.7118C141.411 64.1661 140.702 64.5114 139.913 64.7462L140.199 65.7045ZM142.628 64.5256L143.211 65.3379C144.049 64.7364 144.758 64 145.335 63.1342L144.503 62.5795L143.671 62.0248C143.225 62.6932 142.684 63.2541 142.045 63.7132L142.628 64.5256ZM144.503 62.5795L145.333 63.1366C145.933 62.2429 146.344 61.2303 146.576 60.1123L145.597 59.9091L144.617 59.7059C144.433 60.5955 144.115 61.3631 143.672 62.0225L144.503 62.5795ZM145.597 59.9091V60.9091H149.119V59.9091V58.9091H145.597V59.9091ZM149.119 59.9091L148.135 59.7335C147.889 61.1137 147.444 62.3279 146.812 63.3881L147.67 63.9006L148.529 64.413C149.298 63.1247 149.82 61.678 150.104 60.0847L149.119 59.9091ZM147.67 63.9006L146.812 63.3881C146.171 64.4611 145.38 65.3672 144.436 66.1134L145.057 66.8977L145.677 67.6821C146.817 66.7806 147.768 65.6885 148.529 64.413L147.67 63.9006ZM145.057 66.8977L144.441 66.1099C143.493 66.8507 142.427 67.4172 141.236 67.8085L141.548 68.7585L141.86 69.7086C143.264 69.2475 144.537 68.5735 145.673 67.6855L145.057 66.8977ZM141.548 68.7585L141.234 67.8091C140.056 68.1991 138.785 68.3977 137.415 68.3977V69.3977V70.3977C138.981 70.3977 140.465 70.1702 141.862 69.7079L141.548 68.7585ZM137.415 69.3977V68.3977C135.105 68.3977 133.086 67.8359 131.327 66.7325L130.795 67.5795L130.264 68.4266C132.369 69.7474 134.763 70.3977 137.415 70.3977V69.3977ZM130.795 67.5795L131.327 66.7325C129.566 65.6275 128.166 64.0504 127.132 61.9649L126.236 62.4091L125.34 62.8533C126.522 65.2374 128.161 67.1073 130.264 68.4266L130.795 67.5795ZM126.236 62.4091L127.132 61.9649C126.106 59.8962 125.574 57.4034 125.574 54.4545H124.574H123.574C123.574 57.642 124.15 60.4522 125.34 62.8533L126.236 62.4091ZM124.574 54.4545H125.574C125.574 51.5057 126.106 49.0128 127.132 46.9442L126.236 46.5L125.34 46.0558C124.15 48.4568 123.574 51.2671 123.574 54.4545H124.574ZM126.236 46.5L127.132 46.9442C128.166 44.8586 129.566 43.2815 131.327 42.1766L130.795 41.3295L130.264 40.4825C128.161 41.8018 126.522 43.6717 125.34 46.0558L126.236 46.5ZM130.795 41.3295L131.327 42.1766C133.086 41.0732 135.105 40.5114 137.415 40.5114V39.5114V38.5114C134.763 38.5114 132.369 39.1617 130.264 40.4825L130.795 41.3295ZM137.415 39.5114V40.5114C138.785 40.5114 140.056 40.71 141.234 41.0999L141.548 40.1506L141.862 39.2012C140.465 38.7389 138.981 38.5114 137.415 38.5114V39.5114ZM141.548 40.1506L141.236 41.1006C142.425 41.4911 143.49 42.061 144.436 42.8099L145.057 42.0256L145.677 41.2412C144.541 40.3424 143.266 39.6623 141.86 39.2005L141.548 40.1506ZM145.057 42.0256L144.441 42.8134C145.382 43.5492 146.172 44.449 146.812 45.521L147.67 45.0085L148.529 44.4961C147.767 43.2195 146.815 42.1308 145.673 41.2378L145.057 42.0256ZM147.67 45.0085L146.814 45.524C147.444 46.5723 147.888 47.7847 148.135 49.1745L149.119 49L150.104 48.8255C149.82 47.2229 149.298 45.7743 148.527 44.493L147.67 45.0085ZM173.903 39.9091V38.9091H172.903V39.9091H173.903ZM177.425 39.9091H178.425V38.9091H177.425V39.9091ZM176.019 64.4972L175.162 63.9827L175.161 63.9842L176.019 64.4972ZM172.085 68.1761L172.549 69.0615L172.553 69.0594L172.085 68.1761ZM160.153 68.1761L159.684 69.0595L159.688 69.0615L160.153 68.1761ZM156.204 64.4972L155.344 65.0078L155.348 65.014L156.204 64.4972ZM154.812 39.9091V38.9091H153.812V39.9091H154.812ZM158.335 39.9091H159.335V38.9091H158.335V39.9091ZM159.272 62.679L158.401 63.1703L158.403 63.1735L159.272 62.679ZM161.942 65.2784L161.461 66.155L161.47 66.1596L161.942 65.2784ZM170.295 65.2784L170.768 66.1596L170.773 66.1566L170.295 65.2784ZM172.965 62.679L172.094 62.1877L172.093 62.1901L172.965 62.679ZM167.596 36.9545V37.9545H168.596V36.9545H167.596ZM164.812 36.9545H163.812V37.9545H164.812V36.9545ZM164.812 33.8864L164.755 32.888L163.812 32.9419V33.8864H164.812ZM166.914 33.4744L166.451 32.5882L166.442 32.5926L166.914 33.4744ZM166.644 31.3438L166.275 32.2732L166.275 32.2732L166.644 31.3438ZM164.471 30.9886L163.472 30.9361L163.417 31.9886H164.471V30.9886ZM164.585 28.8295V27.8295H163.636L163.586 28.777L164.585 28.8295ZM169.031 29.8523L168.469 30.6795L168.472 30.6819L169.031 29.8523ZM169.627 34.696L170.213 35.5064L170.213 35.5064L169.627 34.696ZM167.596 35.5341L167.444 34.5457L166.596 34.6762V35.5341H167.596ZM173.903 39.9091V40.9091H177.425V39.9091V38.9091H173.903V39.9091ZM177.425 39.9091H176.425V59.1705H177.425H178.425V39.9091H177.425ZM177.425 59.1705H176.425C176.425 60.995 175.998 62.5896 175.162 63.9827L176.019 64.4972L176.877 65.0117C177.916 63.2797 178.425 61.3232 178.425 59.1705H177.425ZM176.019 64.4972L175.161 63.9842C174.332 65.3709 173.16 66.4734 171.616 67.2928L172.085 68.1761L172.553 69.0594C174.399 68.0797 175.85 66.7295 176.878 65.0101L176.019 64.4972ZM172.085 68.1761L171.62 67.2908C170.093 68.0924 168.27 68.5114 166.119 68.5114V69.5114V70.5114C168.532 70.5114 170.686 70.0401 172.549 69.0615L172.085 68.1761ZM166.119 69.5114V68.5114C163.967 68.5114 162.144 68.0924 160.618 67.2908L160.153 68.1761L159.688 69.0615C161.551 70.0401 163.705 70.5114 166.119 70.5114V69.5114ZM160.153 68.1761L160.621 67.2928C159.077 66.473 157.898 65.3693 157.06 63.9804L156.204 64.4972L155.348 65.014C156.384 66.731 157.839 68.0801 159.684 69.0594L160.153 68.1761ZM156.204 64.4972L157.064 63.9865C156.236 62.5929 155.812 60.9968 155.812 59.1705H154.812H153.812C153.812 61.3213 154.316 63.2764 155.344 65.0078L156.204 64.4972ZM154.812 59.1705H155.812V39.9091H154.812H153.812V59.1705H154.812ZM154.812 39.9091V40.9091H158.335V39.9091V38.9091H154.812V39.9091ZM158.335 39.9091H157.335V58.8864H158.335H159.335V39.9091H158.335ZM158.335 58.8864H157.335C157.335 60.4585 157.682 61.8955 158.401 63.1703L159.272 62.679L160.143 62.1877C159.612 61.2465 159.335 60.1552 159.335 58.8864H158.335ZM159.272 62.679L158.403 63.1735C159.123 64.4398 160.151 65.4354 161.461 66.1549L161.942 65.2784L162.424 64.4019C161.423 63.8524 160.671 63.1151 160.141 62.1845L159.272 62.679ZM161.942 65.2784L161.47 66.1596C162.809 66.8783 164.371 67.2159 166.119 67.2159V66.2159V65.2159C164.628 65.2159 163.405 64.9286 162.415 64.3972L161.942 65.2784ZM166.119 66.2159V67.2159C167.866 67.2159 169.428 66.8783 170.768 66.1596L170.295 65.2784L169.822 64.3972C168.832 64.9286 167.61 65.2159 166.119 65.2159V66.2159ZM170.295 65.2784L170.773 66.1566C172.094 65.4371 173.125 64.4395 173.838 63.1678L172.965 62.679L172.093 62.1901C171.574 63.1154 170.825 63.8508 169.816 64.4002L170.295 65.2784ZM172.965 62.679L173.836 63.1703C174.555 61.8955 174.903 60.4585 174.903 58.8864H173.903H172.903C172.903 60.1552 172.625 61.2465 172.094 62.1877L172.965 62.679ZM173.903 58.8864H174.903V39.9091H173.903H172.903V58.8864H173.903ZM167.596 36.9545V35.9545H164.812V36.9545V37.9545H167.596V36.9545ZM164.812 36.9545H165.812V33.8864H164.812H163.812V36.9545H164.812ZM164.812 33.8864L164.869 34.8847C165.878 34.827 166.771 34.6849 167.386 34.3562L166.914 33.4744L166.442 32.5926C166.243 32.6996 165.734 32.832 164.755 32.888L164.812 33.8864ZM166.914 33.4744L167.377 34.3607C167.714 34.1845 168.018 33.9326 168.233 33.5857C168.449 33.2369 168.539 32.8509 168.539 32.4659H167.539H166.539C166.539 32.503 166.535 32.5228 166.533 32.5298C166.531 32.536 166.531 32.5353 166.533 32.5322C166.539 32.5214 166.531 32.5465 166.451 32.5882L166.914 33.4744ZM167.539 32.4659H168.539C168.539 32.0004 168.398 31.5551 168.097 31.1784C167.808 30.8163 167.42 30.5757 167.013 30.4143L166.644 31.3438L166.275 32.2732C166.465 32.3485 166.524 32.4133 166.534 32.4253C166.536 32.4285 166.537 32.4296 166.536 32.429C166.536 32.4288 166.536 32.4284 166.536 32.428C166.536 32.4276 166.535 32.4274 166.535 32.4274C166.535 32.4274 166.536 32.428 166.536 32.4291C166.536 32.4302 166.537 32.4322 166.537 32.435C166.538 32.4407 166.539 32.4507 166.539 32.4659H167.539ZM166.644 31.3438L167.013 30.4143C166.267 30.1184 165.41 29.9886 164.471 29.9886V30.9886V31.9886C165.236 31.9886 165.828 32.0956 166.275 32.2732L166.644 31.3438ZM164.471 30.9886L165.469 31.0412L165.583 28.8821L164.585 28.8295L163.586 28.777L163.472 30.9361L164.471 30.9886ZM164.585 28.8295V29.8295C166.457 29.8295 167.704 30.1602 168.469 30.6795L169.031 29.8523L169.592 29.0251C168.349 28.1807 166.633 27.8295 164.585 27.8295V28.8295ZM169.031 29.8523L168.472 30.6819C169.234 31.1944 169.55 31.8045 169.55 32.5795H170.55H171.55C171.55 31.0819 170.854 29.8738 169.589 29.0226L169.031 29.8523ZM170.55 32.5795H169.55C169.55 33.3213 169.327 33.6789 169.041 33.8857L169.627 34.696L170.213 35.5064C171.158 34.823 171.55 33.7696 171.55 32.5795H170.55ZM169.627 34.696L169.041 33.8857C168.552 34.2394 168.023 34.4566 167.444 34.5457L167.596 35.5341L167.748 36.5225C168.646 36.3843 169.471 36.0428 170.213 35.5064L169.627 34.696ZM167.596 35.5341H166.596V36.9545H167.596H168.596V35.5341H167.596ZM185.653 69V70H186.36L186.596 69.3345L185.653 69ZM181.96 69L181.022 68.6553L180.528 70H181.96V69ZM192.642 39.9091V38.9091H191.944L191.703 39.5644L192.642 39.9091ZM196.278 39.9091L197.217 39.5644L196.977 38.9091H196.278V39.9091ZM206.96 69V70H208.393L207.899 68.6553L206.96 69ZM203.267 69L202.325 69.3345L202.561 70H203.267V69ZM194.574 44.5114L195.516 44.1768L195.28 43.5114H194.574V44.5114ZM194.347 44.5114V43.5114H193.64L193.404 44.1768L194.347 44.5114ZM187.017 57.6364V56.6364H186.017V57.6364H187.017ZM201.903 57.6364H202.903V56.6364H201.903V57.6364ZM201.903 60.7614V61.7614H202.903V60.7614H201.903ZM187.017 60.7614H186.017V61.7614H187.017V60.7614ZM185.653 69V68H181.96V69V70H185.653V69ZM181.96 69L182.899 69.3447L193.581 40.2538L192.642 39.9091L191.703 39.5644L181.022 68.6553L181.96 69ZM192.642 39.9091V40.9091H196.278V39.9091V38.9091H192.642V39.9091ZM196.278 39.9091L195.34 40.2538L206.022 69.3447L206.96 69L207.899 68.6553L197.217 39.5644L196.278 39.9091ZM206.96 69V68H203.267V69V70H206.96V69ZM203.267 69L204.209 68.6655L195.516 44.1768L194.574 44.5114L193.631 44.8459L202.325 69.3345L203.267 69ZM194.574 44.5114V43.5114H194.347V44.5114V45.5114H194.574V44.5114ZM194.347 44.5114L193.404 44.1768L184.711 68.6655L185.653 69L186.596 69.3345L195.289 44.8459L194.347 44.5114ZM187.017 57.6364V58.6364H201.903V57.6364V56.6364H187.017V57.6364ZM201.903 57.6364H200.903V60.7614H201.903H202.903V57.6364H201.903ZM201.903 60.7614V59.7614H187.017V60.7614V61.7614H201.903V60.7614ZM187.017 60.7614H188.017V57.6364H187.017H186.017V60.7614H187.017ZM221.151 43.0341H220.151V44.0341H221.151V43.0341ZM221.151 39.9091V38.9091H220.151V39.9091H221.151ZM242.969 39.9091H243.969V38.9091H242.969V39.9091ZM242.969 43.0341V44.0341H243.969V43.0341H242.969ZM233.821 43.0341V42.0341H232.821V43.0341H233.821ZM233.821 69V70H234.821V69H233.821ZM230.298 69H229.298V70H230.298V69ZM230.298 43.0341H231.298V42.0341H230.298V43.0341ZM221.151 43.0341H222.151V39.9091H221.151H220.151V43.0341H221.151ZM221.151 39.9091V40.9091H242.969V39.9091V38.9091H221.151V39.9091ZM242.969 39.9091H241.969V43.0341H242.969H243.969V39.9091H242.969ZM242.969 43.0341V42.0341H233.821V43.0341V44.0341H242.969V43.0341ZM233.821 43.0341H232.821V69H233.821H234.821V43.0341H233.821ZM233.821 69V68H230.298V69V70H233.821V69ZM230.298 69H231.298V43.0341H230.298H229.298V69H230.298ZM230.298 43.0341V42.0341H221.151V43.0341V44.0341H230.298V43.0341ZM270.078 62.4091L269.182 61.9649L269.182 61.9649L270.078 62.4091ZM265.518 67.5795L266.05 68.4266L266.05 68.4266L265.518 67.5795ZM252.28 67.5795L251.748 68.4266L251.748 68.4266L252.28 67.5795ZM247.72 62.4091L248.616 61.9649L248.616 61.9649L247.72 62.4091ZM247.72 46.5L246.824 46.0558L247.72 46.5ZM265.518 41.3295L266.05 40.4825L266.05 40.4825L265.518 41.3295ZM270.078 46.5L269.182 46.9442L269.182 46.9442L270.078 46.5ZM267.067 48.0767L266.166 48.5101L266.167 48.5141L267.067 48.0767ZM263.672 44.142L263.141 44.9894L263.143 44.991L263.672 44.142ZM254.112 44.142L253.584 43.2931L253.581 43.2947L254.112 44.142ZM250.717 48.0767L249.818 47.6393L249.816 47.6433L250.717 48.0767ZM250.717 60.8324L249.816 61.2658L249.818 61.2697L250.717 60.8324ZM254.112 64.767L253.581 65.6144L253.584 65.616L254.112 64.767ZM263.672 64.767L263.143 63.9181L263.141 63.9197L263.672 64.767ZM267.067 60.8324L266.167 60.395L266.166 60.399L267.067 60.8324ZM261.854 37.2955L261.051 37.8918L261.351 38.2955H261.854V37.2955ZM258.899 33.3182L259.702 32.7219L258.899 31.6412L258.096 32.7219L258.899 33.3182ZM255.945 37.2955V38.2955H256.447L256.747 37.8918L255.945 37.2955ZM252.763 37.2955H251.763V38.2955H252.763V37.2955ZM252.763 37.0682L251.974 36.4537L251.763 36.7247V37.0682H252.763ZM257.365 31.1591V30.1591H256.876L256.576 30.5446L257.365 31.1591ZM260.433 31.1591L261.222 30.5446L260.922 30.1591H260.433V31.1591ZM265.036 37.0682H266.036V36.7247L265.824 36.4537L265.036 37.0682ZM265.036 37.2955V38.2955H266.036V37.2955H265.036ZM271.74 54.4545H270.74C270.74 57.4034 270.208 59.8962 269.182 61.9649L270.078 62.4091L270.974 62.8533C272.164 60.4522 272.74 57.642 272.74 54.4545H271.74ZM270.078 62.4091L269.182 61.9649C268.148 64.0504 266.748 65.6275 264.987 66.7325L265.518 67.5795L266.05 68.4266C268.153 67.1073 269.792 65.2374 270.974 62.8533L270.078 62.4091ZM265.518 67.5795L264.987 66.7325C263.228 67.8359 261.209 68.3977 258.899 68.3977V69.3977V70.3977C261.551 70.3977 263.945 69.7474 266.05 68.4266L265.518 67.5795ZM258.899 69.3977V68.3977C256.589 68.3977 254.57 67.8359 252.811 66.7325L252.28 67.5795L251.748 68.4266C253.853 69.7474 256.247 70.3977 258.899 70.3977V69.3977ZM252.28 67.5795L252.811 66.7325C251.05 65.6275 249.65 64.0504 248.616 61.9649L247.72 62.4091L246.824 62.8533C248.006 65.2374 249.646 67.1073 251.748 68.4266L252.28 67.5795ZM247.72 62.4091L248.616 61.9649C247.591 59.8962 247.058 57.4034 247.058 54.4545H246.058H245.058C245.058 57.642 245.634 60.4522 246.824 62.8533L247.72 62.4091ZM246.058 54.4545H247.058C247.058 51.5057 247.591 49.0128 248.616 46.9442L247.72 46.5L246.824 46.0558C245.634 48.4568 245.058 51.2671 245.058 54.4545H246.058ZM247.72 46.5L248.616 46.9442C249.65 44.8586 251.05 43.2815 252.811 42.1766L252.28 41.3295L251.748 40.4825C249.646 41.8018 248.006 43.6717 246.824 46.0558L247.72 46.5ZM252.28 41.3295L252.811 42.1766C254.57 41.0732 256.589 40.5114 258.899 40.5114V39.5114V38.5114C256.247 38.5114 253.853 39.1617 251.748 40.4825L252.28 41.3295ZM258.899 39.5114V40.5114C261.209 40.5114 263.228 41.0732 264.987 42.1766L265.518 41.3295L266.05 40.4825C263.945 39.1617 261.551 38.5114 258.899 38.5114V39.5114ZM265.518 41.3295L264.987 42.1766C266.748 43.2815 268.148 44.8586 269.182 46.9442L270.078 46.5L270.974 46.0558C269.792 43.6717 268.153 41.8018 266.05 40.4825L265.518 41.3295ZM270.078 46.5L269.182 46.9442C270.208 49.0128 270.74 51.5057 270.74 54.4545H271.74H272.74C272.74 51.2671 272.164 48.4568 270.974 46.0558L270.078 46.5ZM268.331 54.4545H269.331C269.331 51.8288 268.892 49.5438 267.966 47.6393L267.067 48.0767L266.167 48.5141C266.927 50.0756 267.331 52.0424 267.331 54.4545H268.331ZM267.067 48.0767L267.968 47.6433C267.064 45.7641 265.813 44.2972 264.2 43.2931L263.672 44.142L263.143 44.991C264.39 45.7672 265.403 46.9234 266.166 48.5101L267.067 48.0767ZM263.672 44.142L264.203 43.2947C262.615 42.2996 260.838 41.8068 258.899 41.8068V42.8068V43.8068C260.483 43.8068 261.888 44.2042 263.141 44.9894L263.672 44.142ZM258.899 42.8068V41.8068C256.96 41.8068 255.18 42.2996 253.584 43.2931L254.112 44.142L254.641 44.991C255.905 44.2042 257.316 43.8068 258.899 43.8068V42.8068ZM254.112 44.142L253.581 43.2947C251.979 44.2985 250.73 45.7637 249.818 47.6393L250.717 48.0767L251.617 48.5141C252.39 46.9238 253.404 45.7659 254.643 44.9894L254.112 44.142ZM250.717 48.0767L249.816 47.6433C248.901 49.5467 248.467 51.8302 248.467 54.4545H249.467H250.467C250.467 52.041 250.867 50.0727 251.619 48.5101L250.717 48.0767ZM249.467 54.4545H248.467C248.467 57.0789 248.901 59.3624 249.816 61.2658L250.717 60.8324L251.619 60.399C250.867 58.8364 250.467 56.8681 250.467 54.4545H249.467ZM250.717 60.8324L249.818 61.2697C250.73 63.1454 251.979 64.6106 253.581 65.6144L254.112 64.767L254.643 63.9197C253.404 63.1432 252.39 61.9853 251.617 60.395L250.717 60.8324ZM254.112 64.767L253.584 65.616C255.18 66.6095 256.96 67.1023 258.899 67.1023V66.1023V65.1023C257.316 65.1023 255.905 64.7049 254.641 63.9181L254.112 64.767ZM258.899 66.1023V67.1023C260.838 67.1023 262.615 66.6095 264.203 65.6144L263.672 64.767L263.141 63.9197C261.888 64.7049 260.483 65.1023 258.899 65.1023V66.1023ZM263.672 64.767L264.2 65.616C265.813 64.6119 267.064 63.145 267.968 61.2658L267.067 60.8324L266.166 60.399C265.403 61.9857 264.39 63.1419 263.143 63.9181L263.672 64.767ZM267.067 60.8324L267.966 61.2697C268.892 59.3653 269.331 57.0803 269.331 54.4545H268.331H267.331C267.331 56.8667 266.927 58.8335 266.167 60.395L267.067 60.8324ZM261.854 37.2955L262.656 36.6991L259.702 32.7219L258.899 33.3182L258.096 33.9145L261.051 37.8918L261.854 37.2955ZM258.899 33.3182L258.096 32.7219L255.142 36.6991L255.945 37.2955L256.747 37.8918L259.702 33.9145L258.899 33.3182ZM255.945 37.2955V36.2955H252.763V37.2955V38.2955H255.945V37.2955ZM252.763 37.2955H253.763V37.0682H252.763H251.763V37.2955H252.763ZM252.763 37.0682L253.552 37.6826L258.154 31.7736L257.365 31.1591L256.576 30.5446L251.974 36.4537L252.763 37.0682ZM257.365 31.1591V32.1591H260.433V31.1591V30.1591H257.365V31.1591ZM260.433 31.1591L259.644 31.7736L264.247 37.6826L265.036 37.0682L265.824 36.4537L261.222 30.5446L260.433 31.1591ZM265.036 37.0682H264.036V37.2955H265.036H266.036V37.0682H265.036ZM265.036 37.2955V36.2955H261.854V37.2955V38.2955H265.036V37.2955ZM281.186 39.9091H282.186V38.9091H281.186V39.9091ZM281.186 69V70H282.186V69H281.186ZM277.663 69H276.663V70H277.663V69ZM277.663 39.9091V38.9091H276.663V39.9091H277.663ZM281.186 39.9091H280.186V69H281.186H282.186V39.9091H281.186ZM281.186 69V68H277.663V69V70H281.186V69ZM277.663 69H278.663V39.9091H277.663H276.663V69H277.663ZM277.663 39.9091V40.9091H281.186V39.9091V38.9091H277.663V39.9091Z" fill="#162556" mask="url(#path-15-outside-4_1_92)"/>
</svg>
