<svg width="265" height="100" viewBox="0 0 265 100" fill="none" xmlns="http://www.w3.org/2000/svg">
<rect x="26.9373" y="25.4506" width="22.8782" height="24.3441" fill="#FFDEAA"/>
<path d="M26.9373 25.4506L50.2656 50.0713H3.60891L26.9373 25.4506Z" fill="#FF9D00"/>
<rect x="74.5387" y="26.926" width="23.2375" height="24.7232" transform="rotate(90 74.5387 26.926)" fill="#FFAFF0"/>
<path d="M74.5387 26.926L49.631 50.2446V3.6074L74.5387 26.926Z" fill="#FF00D0"/>
<rect x="73.0627" y="74.8764" width="23.2472" height="24.7129" transform="rotate(-180 73.0627 74.8764)" fill="#AEFFB4"/>
<path d="M73.0627 74.8764L49.7344 49.9791H96.3911L73.0627 74.8764Z" fill="#00FF11"/>
<rect x="25.0228" y="73.074" width="23.2375" height="24.7232" transform="rotate(-90 25.0228 73.074)" fill="#B1ABFF"/>
<path d="M25.0228 73.074L49.9306 49.7554V96.3926L25.0228 73.074Z" fill="#1100FF"/>
<path d="M126.8 56H101.75V52.05H104.55V24.95H101.75V21H126.1V28.7H122.15V24.95H108.7V36.4H124.15V40.35H108.7V52.05H122.85V48.3H126.8V56ZM151.864 41.2C150.431 43.9 148.981 46.5667 147.514 49.2C146.081 51.8333 144.648 54.4833 143.214 57.15C141.748 54.4833 140.298 51.8333 138.864 49.2C137.431 46.5333 135.981 43.8667 134.514 41.2H130.314V37.25H141.414V41.2H138.814C139.681 42.6667 140.514 44.1333 141.314 45.6C142.114 47.0667 142.748 48.5333 143.214 50C143.681 48.5333 144.298 47.0667 145.064 45.6C145.864 44.1333 146.698 42.6667 147.564 41.2H144.564V37.25H156.014V41.2H151.864ZM187.464 56H159.514V52L180.914 24.95H160.314V19.25H164.464V21H186.014V24.95L164.614 52H183.514V43.9H187.464V56ZM208.109 53.55C207.209 54.45 206.142 55.1667 204.909 55.7C203.676 56.2 202.359 56.45 200.959 56.45C199.559 56.45 198.242 56.2 197.009 55.7C195.809 55.1667 194.759 54.45 193.859 53.55C192.959 52.65 192.242 51.6167 191.709 50.45C191.209 49.2833 190.959 48 190.959 46.6C190.959 45.2667 191.209 44 191.709 42.8C192.242 41.6 192.959 40.55 193.859 39.65C194.759 38.7833 195.809 38.1 197.009 37.6C198.242 37.0667 199.559 36.8 200.959 36.8C202.359 36.8 203.676 37.0667 204.909 37.6C206.142 38.1 207.209 38.7833 208.109 39.65C209.009 40.55 209.709 41.6 210.209 42.8C210.742 44 211.009 45.2667 211.009 46.6C211.009 47.9667 210.742 49.25 210.209 50.45C209.709 51.6167 209.009 52.65 208.109 53.55ZM196.809 50.7C197.309 51.2333 197.909 51.65 198.609 51.95C199.309 52.25 200.059 52.4 200.859 52.4C201.659 52.4 202.409 52.25 203.109 51.95C203.809 51.65 204.426 51.2333 204.959 50.7C205.492 50.2 205.909 49.6 206.209 48.9C206.509 48.2 206.659 47.45 206.659 46.65C206.659 45.85 206.509 45.1 206.209 44.4C205.909 43.7 205.492 43.0833 204.959 42.55C204.426 42.0167 203.809 41.6 203.109 41.3C202.409 41 201.659 40.85 200.859 40.85C200.059 40.85 199.309 41 198.609 41.3C197.909 41.6 197.309 42.0167 196.809 42.55C196.276 43.0833 195.859 43.7 195.559 44.4C195.259 45.1 195.109 45.85 195.109 46.65C195.109 47.45 195.259 48.2 195.559 48.9C195.859 49.6 196.276 50.2 196.809 50.7ZM225.594 56H214.494V52.05H218.294V41.2H214.994V37.25H221.944V37.7C222.011 38.5 222.061 39.2333 222.094 39.9C222.161 40.5333 222.227 41.25 222.294 42.05C222.961 40.45 224.027 39.1833 225.494 38.25C226.994 37.2833 228.644 36.8 230.444 36.8C232.411 36.8 233.961 37.3167 235.094 38.35C236.227 39.3833 236.827 40.7333 236.894 42.4V52.05H239.994V56H228.894V52.05H232.744V44.3C232.677 43.4 232.344 42.6333 231.744 42C231.177 41.3333 230.261 40.9667 228.994 40.9C228.127 40.9 227.294 41.05 226.494 41.35C225.727 41.65 225.044 42.0667 224.444 42.6C223.844 43.1333 223.361 43.7667 222.994 44.5C222.627 45.2333 222.444 46.0333 222.444 46.9V52.05H225.594V56ZM253.498 40.85C252.565 40.85 251.715 41.0167 250.948 41.35C250.215 41.65 249.581 42.0833 249.048 42.65C248.648 43.1167 248.315 43.65 248.048 44.25C247.815 44.85 247.681 45.5 247.648 46.2C249.215 45.6333 250.765 45.0667 252.298 44.5C253.865 43.9 255.431 43.3167 256.998 42.75C256.531 42.1833 255.998 41.7333 255.398 41.4C254.831 41.0333 254.198 40.85 253.498 40.85ZM259.848 53.8C259.015 54.6333 258.065 55.2833 256.998 55.75C255.931 56.2167 254.765 56.45 253.498 56.45C252.098 56.45 250.781 56.2 249.548 55.7C248.348 55.1667 247.298 54.45 246.398 53.55C245.498 52.65 244.781 51.6167 244.248 50.45C243.748 49.25 243.498 47.9667 243.498 46.6C243.498 45.2667 243.748 44 244.248 42.8C244.781 41.6 245.498 40.55 246.398 39.65C247.298 38.7833 248.348 38.1 249.548 37.6C250.781 37.0667 252.098 36.8 253.498 36.8C254.531 36.8 255.515 37.0167 256.448 37.45C257.415 37.85 258.281 38.4167 259.048 39.15C259.781 39.8833 260.431 40.7667 260.998 41.8C261.565 42.8 261.998 43.9 262.298 45.1C260.031 45.9333 257.765 46.7667 255.498 47.6C253.265 48.4333 251.015 49.2667 248.748 50.1C249.248 50.8 249.898 51.3667 250.698 51.8C251.531 52.2 252.465 52.4 253.498 52.4C254.265 52.4 254.965 52.2667 255.598 52C256.231 51.7333 256.798 51.3333 257.298 50.8L259.848 53.8Z" fill="white"/>
<path d="M104.697 70H102.035V69.131H102.981V63.169H101.254V63.994H100.385V62.3H106.468V63.994H105.599V63.169H103.894V69.131H104.697V70ZM109.681 70H107.239V69.131H108.075V66.744H107.349V65.875H108.878L108.922 66.447C108.936 66.623 108.94 66.7037 108.933 66.689C108.933 66.6743 108.94 66.755 108.955 66.931C109.043 66.7477 109.153 66.5863 109.285 66.447C109.424 66.3003 109.567 66.1793 109.714 66.084C109.868 65.9813 110.014 65.9043 110.154 65.853C110.3 65.8017 110.429 65.776 110.539 65.776L110.473 66.678C110.289 66.678 110.117 66.7 109.956 66.744C109.802 66.788 109.666 66.8503 109.549 66.931C109.373 67.0483 109.233 67.1987 109.131 67.382C109.035 67.5653 108.988 67.7707 108.988 67.998V69.131H109.681V70ZM116.557 70H114.918V69.78C114.918 69.7287 114.918 69.692 114.918 69.67C114.918 69.648 114.918 69.6113 114.918 69.56C114.91 69.582 114.874 69.6223 114.808 69.681C114.742 69.7397 114.65 69.7983 114.533 69.857C114.408 69.923 114.261 69.978 114.093 70.022C113.924 70.0733 113.733 70.099 113.521 70.099C113.213 70.099 112.923 70.044 112.652 69.934C112.38 69.8167 112.146 69.659 111.948 69.461C111.75 69.263 111.592 69.0357 111.475 68.779C111.365 68.515 111.31 68.2363 111.31 67.943C111.31 67.657 111.365 67.382 111.475 67.118C111.592 66.854 111.75 66.623 111.948 66.425C112.146 66.227 112.38 66.0693 112.652 65.952C112.923 65.8347 113.213 65.776 113.521 65.776C113.924 65.776 114.243 65.8493 114.478 65.996C114.712 66.1353 114.859 66.2673 114.918 66.392C114.925 66.3187 114.932 66.238 114.94 66.15C114.954 66.0547 114.962 65.963 114.962 65.875H115.721V69.131H116.557V70ZM113.521 66.667C113.323 66.667 113.139 66.7037 112.971 66.777C112.802 66.843 112.663 66.9383 112.553 67.063C112.45 67.173 112.369 67.3013 112.311 67.448C112.259 67.5947 112.234 67.756 112.234 67.932C112.234 68.1373 112.274 68.328 112.355 68.504C112.443 68.68 112.56 68.8267 112.707 68.944C112.809 69.0247 112.93 69.0907 113.07 69.142C113.209 69.186 113.359 69.208 113.521 69.208C113.704 69.208 113.869 69.1787 114.016 69.12C114.17 69.0613 114.302 68.9807 114.412 68.878C114.536 68.7607 114.632 68.6213 114.698 68.46C114.771 68.2987 114.808 68.1227 114.808 67.932C114.808 67.7413 114.771 67.5653 114.698 67.404C114.632 67.2427 114.54 67.107 114.423 66.997C114.305 66.8943 114.17 66.8137 114.016 66.755C113.869 66.6963 113.704 66.667 113.521 66.667ZM127.674 63.169C127.168 64.379 126.659 65.578 126.145 66.766C125.639 67.9467 125.133 69.142 124.627 70.352C124.121 69.142 123.612 67.9467 123.098 66.766C122.592 65.578 122.086 64.379 121.58 63.169H120.623V62.3H123.285V63.169H122.493C122.838 63.9683 123.175 64.7677 123.505 65.567C123.843 66.3663 124.184 67.1657 124.528 67.965L124.627 68.328L124.726 67.965C125.071 67.1657 125.408 66.37 125.738 65.578C126.076 64.7787 126.413 63.9757 126.75 63.169H126.101V62.3H128.763V63.169H127.674ZM131.971 70H129.529V69.131H130.299V66.744H129.529V65.875H131.212V69.131H131.971V70ZM131.333 64.28C131.333 64.4487 131.274 64.588 131.157 64.698C131.039 64.8007 130.911 64.852 130.772 64.852C130.625 64.852 130.493 64.8007 130.376 64.698C130.258 64.588 130.2 64.4487 130.2 64.28C130.2 64.1113 130.258 63.972 130.376 63.862C130.493 63.752 130.625 63.697 130.772 63.697C130.911 63.697 131.039 63.752 131.157 63.862C131.274 63.972 131.333 64.1113 131.333 64.28ZM135.182 70H132.74V69.131H133.576V66.744H132.85V65.875H134.379V65.974C134.394 66.15 134.405 66.3113 134.412 66.458C134.427 66.5973 134.442 66.755 134.456 66.931C134.603 66.579 134.838 66.3003 135.16 66.095C135.49 65.8823 135.853 65.776 136.249 65.776C136.682 65.776 137.023 65.8897 137.272 66.117C137.522 66.3443 137.654 66.6413 137.668 67.008V69.131H138.35V70H135.908V69.131H136.755V67.426C136.741 67.228 136.667 67.0593 136.535 66.92C136.411 66.7733 136.209 66.6927 135.93 66.678C135.74 66.678 135.556 66.711 135.38 66.777C135.212 66.843 135.061 66.9347 134.929 67.052C134.797 67.1693 134.691 67.3087 134.61 67.47C134.53 67.6313 134.489 67.8073 134.489 67.998V69.131H135.182V70ZM141.563 70H139.121V69.131H139.957V62.619H139.121V61.75H140.87V66.436L140.837 66.931C140.999 66.5717 141.233 66.2967 141.541 66.106C141.849 65.908 142.212 65.798 142.63 65.776C143.063 65.776 143.404 65.8897 143.653 66.117C143.903 66.3443 144.035 66.6413 144.049 67.008V69.131H144.731V70H142.289V69.131H143.136V67.426C143.122 67.228 143.048 67.0593 142.916 66.92C142.792 66.7733 142.59 66.6927 142.311 66.678C142.121 66.678 141.937 66.711 141.761 66.777C141.593 66.843 141.442 66.9347 141.31 67.052C141.178 67.1693 141.072 67.3087 140.991 67.47C140.911 67.6313 140.87 67.8073 140.87 67.998V69.131H141.563V70ZM154.399 69.428C154.15 69.648 153.856 69.813 153.519 69.923C153.182 70.033 152.815 70.088 152.419 70.088C152.023 70.088 151.656 70.033 151.319 69.923C150.982 69.813 150.688 69.648 150.439 69.428C150.19 69.2153 149.995 68.9477 149.856 68.625C149.717 68.3023 149.647 67.932 149.647 67.514V63.169H148.8V62.3H151.462V63.169H150.56V67.481C150.56 67.7597 150.604 68.009 150.692 68.229C150.787 68.4417 150.919 68.6213 151.088 68.768C151.249 68.9147 151.444 69.0283 151.671 69.109C151.898 69.1823 152.148 69.219 152.419 69.219C152.69 69.219 152.94 69.1823 153.167 69.109C153.394 69.0283 153.592 68.9147 153.761 68.768C153.922 68.6213 154.051 68.4417 154.146 68.229C154.241 68.009 154.289 67.7597 154.289 67.481V63.169H153.387V62.3H156.049V63.169H155.202V67.514C155.202 67.932 155.129 68.3023 154.982 68.625C154.843 68.9477 154.648 69.2153 154.399 69.428ZM159.256 70H156.814V69.131H157.65V66.744H156.924V65.875H158.453V65.974C158.467 66.15 158.478 66.3113 158.486 66.458C158.5 66.5973 158.515 66.755 158.53 66.931C158.676 66.579 158.911 66.3003 159.234 66.095C159.564 65.8823 159.927 65.776 160.323 65.776C160.755 65.776 161.096 65.8897 161.346 66.117C161.595 66.3443 161.727 66.6413 161.742 67.008V69.131H162.424V70H159.982V69.131H160.829V67.426C160.814 67.228 160.741 67.0593 160.609 66.92C160.484 66.7733 160.282 66.6927 160.004 66.678C159.813 66.678 159.63 66.711 159.454 66.777C159.285 66.843 159.135 66.9347 159.003 67.052C158.871 67.1693 158.764 67.3087 158.684 67.47C158.603 67.6313 158.563 67.8073 158.563 67.998V69.131H159.256V70ZM165.637 70H163.195V69.131H163.965V66.744H163.195V65.875H164.878V69.131H165.637V70ZM164.999 64.28C164.999 64.4487 164.94 64.588 164.823 64.698C164.705 64.8007 164.577 64.852 164.438 64.852C164.291 64.852 164.159 64.8007 164.042 64.698C163.924 64.588 163.866 64.4487 163.866 64.28C163.866 64.1113 163.924 63.972 164.042 63.862C164.159 63.752 164.291 63.697 164.438 63.697C164.577 63.697 164.705 63.752 164.823 63.862C164.94 63.972 164.999 64.1113 164.999 64.28ZM171.147 66.744C170.832 67.338 170.513 67.9247 170.19 68.504C169.875 69.0833 169.56 69.6663 169.244 70.253C168.922 69.6663 168.603 69.0833 168.287 68.504C167.972 67.9173 167.653 67.3307 167.33 66.744H166.406V65.875H168.848V66.744H168.276C168.467 67.0667 168.65 67.3893 168.826 67.712C169.002 68.0347 169.142 68.3573 169.244 68.68C169.347 68.3573 169.483 68.0347 169.651 67.712C169.827 67.3893 170.011 67.0667 170.201 66.744H169.541V65.875H172.06V66.744H171.147ZM175.03 66.667C174.825 66.667 174.638 66.7037 174.469 66.777C174.308 66.843 174.169 66.9383 174.051 67.063C173.963 67.1657 173.89 67.283 173.831 67.415C173.78 67.547 173.751 67.69 173.743 67.844C174.088 67.7193 174.429 67.5947 174.766 67.47C175.111 67.338 175.456 67.2097 175.8 67.085C175.698 66.9603 175.58 66.8613 175.448 66.788C175.324 66.7073 175.184 66.667 175.03 66.667ZM176.427 69.516C176.244 69.6993 176.035 69.8423 175.8 69.945C175.566 70.0477 175.309 70.099 175.03 70.099C174.722 70.099 174.433 70.044 174.161 69.934C173.897 69.8167 173.666 69.659 173.468 69.461C173.27 69.263 173.113 69.0357 172.995 68.779C172.885 68.515 172.83 68.2327 172.83 67.932C172.83 67.6387 172.885 67.36 172.995 67.096C173.113 66.832 173.27 66.601 173.468 66.403C173.666 66.2123 173.897 66.062 174.161 65.952C174.433 65.8347 174.722 65.776 175.03 65.776C175.258 65.776 175.474 65.8237 175.679 65.919C175.892 66.007 176.083 66.1317 176.251 66.293C176.413 66.4543 176.556 66.6487 176.68 66.876C176.805 67.096 176.9 67.338 176.966 67.602C176.468 67.7853 175.969 67.9687 175.47 68.152C174.979 68.3353 174.484 68.5187 173.985 68.702C174.095 68.856 174.238 68.9807 174.414 69.076C174.598 69.164 174.803 69.208 175.03 69.208C175.199 69.208 175.353 69.1787 175.492 69.12C175.632 69.0613 175.756 68.9733 175.866 68.856L176.427 69.516ZM180.224 70H177.782V69.131H178.618V66.744H177.892V65.875H179.421L179.465 66.447C179.48 66.623 179.484 66.7037 179.476 66.689C179.476 66.6743 179.484 66.755 179.498 66.931C179.586 66.7477 179.696 66.5863 179.828 66.447C179.968 66.3003 180.111 66.1793 180.257 66.084C180.411 65.9813 180.558 65.9043 180.697 65.853C180.844 65.8017 180.972 65.776 181.082 65.776L181.016 66.678C180.833 66.678 180.661 66.7 180.499 66.744C180.345 66.788 180.21 66.8503 180.092 66.931C179.916 67.0483 179.777 67.1987 179.674 67.382C179.579 67.5653 179.531 67.7707 179.531 67.998V69.131H180.224V70ZM184.505 69.593C184.402 69.7323 184.259 69.8497 184.076 69.945C183.892 70.0403 183.654 70.088 183.361 70.088C183.089 70.088 182.829 70.055 182.58 69.989C182.33 69.9157 182.132 69.7983 181.986 69.637V68.68H182.8V69.109C182.888 69.1457 182.972 69.1713 183.053 69.186C183.141 69.1933 183.247 69.197 183.372 69.197C183.43 69.197 183.489 69.1897 183.548 69.175C183.614 69.1603 183.672 69.1347 183.724 69.098C183.76 69.0687 183.79 69.032 183.812 68.988C183.841 68.9367 183.856 68.8743 183.856 68.801C183.856 68.669 183.815 68.57 183.735 68.504C183.661 68.4307 183.559 68.372 183.427 68.328C183.302 68.2767 183.163 68.229 183.009 68.185C182.855 68.1337 182.708 68.064 182.569 67.976C182.437 67.8953 182.327 67.778 182.239 67.624C182.151 67.47 182.107 67.2647 182.107 67.008C182.107 66.7807 182.151 66.59 182.239 66.436C182.327 66.282 182.437 66.1573 182.569 66.062C182.701 65.9593 182.844 65.886 182.998 65.842C183.152 65.798 183.291 65.776 183.416 65.776C183.489 65.776 183.577 65.7833 183.68 65.798C183.79 65.8127 183.9 65.8383 184.01 65.875C184.12 65.9117 184.226 65.9593 184.329 66.018C184.439 66.0767 184.534 66.15 184.615 66.238V67.195H183.801V66.722C183.742 66.7073 183.687 66.6963 183.636 66.689C183.584 66.6743 183.529 66.667 183.471 66.667C183.39 66.667 183.32 66.678 183.262 66.7C183.203 66.7147 183.155 66.7367 183.119 66.766C183.082 66.8027 183.056 66.8467 183.042 66.898C183.027 66.942 183.023 66.9933 183.031 67.052C183.045 67.14 183.1 67.2133 183.196 67.272C183.291 67.3233 183.405 67.3747 183.537 67.426C183.661 67.4773 183.797 67.536 183.944 67.602C184.09 67.668 184.226 67.7487 184.351 67.844C184.475 67.9467 184.578 68.075 184.659 68.229C184.739 68.3757 184.78 68.5627 184.78 68.79C184.78 68.8927 184.758 69.0173 184.714 69.164C184.677 69.3107 184.607 69.4537 184.505 69.593ZM187.948 70H185.506V69.131H186.276V66.744H185.506V65.875H187.189V69.131H187.948V70ZM187.31 64.28C187.31 64.4487 187.251 64.588 187.134 64.698C187.017 64.8007 186.888 64.852 186.749 64.852C186.602 64.852 186.47 64.8007 186.353 64.698C186.236 64.588 186.177 64.4487 186.177 64.28C186.177 64.1113 186.236 63.972 186.353 63.862C186.47 63.752 186.602 63.697 186.749 63.697C186.888 63.697 187.017 63.752 187.134 63.862C187.251 63.972 187.31 64.1113 187.31 64.28ZM191.38 70H189.642V66.766H188.718V65.875H189.642V63.191H190.555V65.875H191.633V66.766H190.555V69.131H191.38V70ZM195.472 72.75H193.03V71.881H194.02C194.174 71.5657 194.328 71.2503 194.482 70.935C194.643 70.6197 194.804 70.308 194.966 70C194.687 69.45 194.412 68.9073 194.141 68.372C193.877 67.8367 193.605 67.294 193.327 66.744H192.403V65.875H194.845V66.744H194.262C194.474 67.1473 194.687 67.5543 194.9 67.965C195.112 68.3683 195.288 68.7753 195.428 69.186C195.567 68.7753 195.739 68.3683 195.945 67.965C196.157 67.5543 196.37 67.1473 196.583 66.744H195.901V65.875H198.42V66.744H197.518C197.085 67.6093 196.652 68.4673 196.22 69.318C195.794 70.1613 195.365 71.0157 194.933 71.881H195.472V72.75Z" fill="white"/>
</svg>
